<svg xmlns="http://www.w3.org/2000/svg" xmlns:xlink="http://www.w3.org/1999/xlink" xmlns:lucid="lucid" width="1540" height="840"><g transform="translate(0 -100)" lucid:page-tab-id="0_0"><path d="M0 0h1870.87v1322.83H0z" fill="#fff"/><path d="M180 182c0-16.57 13.43-30 30-30h1280c16.57 0 30 13.43 30 30v708c0 16.57-13.43 30-30 30H210c-16.57 0-30-13.43-30-30z" stroke="#474747" fill-opacity="0"/><path d="M288 154.4v3.54c0 6.42-7.1 13.05-15.76 13.05h-46.48c-8.66 0-15.75-6.64-15.75-13.06v-3.54z" fill="#9d5125"/><path d="M240.03 120c8.03 0 14.82 4.4 18.17 11.67 4.6-3.14 10.92-1.98 14.04 2.65 1.17 1.64 1.7 3.32 1.8 5.3 7.87.68 13.95 8.25 13.95 14.27v1.3c0 6.45-7.1 13-15.76 13h-46.5c-8.64 0-15.74-6.55-15.74-13v-1.3c0-5.02 4.2-11.87 10.06-13.56v-.57c.08-10.95 8.97-19.82 19.97-19.77z" fill="#f58535"/><path d="M229.54 143.13l-5.2 18.2h3.04l1.17-4.43h5.38l1.1 4.43h3.05l-4.8-18.2zm-.47 11.4l2.22-8.98 2.1 8.97zM251.2 157.34h-.03l-2.47-14.2h-3.1l-2.4 14.13h-.06l-2.4-14.14h-2.95l3.53 18.2h3.38l2.35-13.7h.06l2.36 13.7h3.4l3.64-18.2h-2.9l-2.4 14.2zM265.9 151.4l-1.98-.72c-1.93-.7-2.74-1.53-2.74-3.1-.17-1.26.74-2.43 2-2.6.16-.02.3-.02.45-.02 1.26-.17 2.4.72 2.58 1.96.04.25.03.44 0 .68v.38h2.93v-.4c0-1.9-.5-4.8-5.18-4.8-3.44 0-5.7 1.84-5.7 5.16 0 2.6 1.1 3.97 3.82 5l2 .68c1.6.23 2.73 1.6 2.64 3.2.04 1.45-1.08 2.64-2.5 2.68h-.28c-2 0-3-1.12-3-3.33v-.47h-2.9v.44c0 2.54 1.02 5.53 5.52 5.53 3.7 0 6.07-1.6 6.07-5.48.04-2.5-1.1-3.9-3.7-4.8z" fill="#fff"/><path d="M320 222c0-16.57 13.43-30 30-30h940c16.57 0 30 13.43 30 30v648c0 16.57-13.43 30-30 30H350c-16.57 0-30-13.43-30-30z" stroke="#474747" fill-opacity="0"/><path d="M428 194.4v3.54c0 6.42-7.1 13.05-15.76 13.05h-46.48c-8.66 0-15.75-6.64-15.75-13.06v-3.54z" fill="#9d5125"/><path d="M380.03 160c8.03 0 14.82 4.4 18.17 11.67 4.6-3.14 10.92-1.98 14.04 2.65 1.17 1.64 1.7 3.32 1.8 5.3 7.87.68 13.95 8.25 13.95 14.27v1.3c0 6.45-7.1 13-15.76 13h-46.5c-8.64 0-15.74-6.55-15.74-13v-1.3c0-5.02 4.2-11.87 10.06-13.56v-.57c.08-10.95 8.97-19.82 19.97-19.77z" fill="#f58535"/><path d="M368.9 183.13h3.08l3.1 14.58 3.32-14.54h3.1l-4.6 18.2h-3.7zM383.37 183.13h5.77c3.5 0 5.04 2.2 5.04 5.3 0 3.1-1.9 5.4-5.33 5.4h-2.57v7.53h-2.9zm2.9 8.5h2.08c1.56 0 2.9-.83 2.9-3.14 0-1.98-.78-3.17-3.1-3.17h-1.87zM407.8 194.83v.38c0 3.32-1.3 6.52-5.6 6.52-4.6 0-6.04-2.97-6.04-9.47s1.43-9.46 6.05-9.46c5.2 0 5.54 3.8 5.54 5.7v.37h-2.9v-.3c0-1.7-.5-3.64-2.6-3.57-2.08.08-3.1 1.35-3.1 7.22 0 5.87.92 7.3 3.14 7.3 2.42 0 2.7-2.7 2.7-4.42v-.3z" fill="#fff"/><use xlink:href="#a" transform="matrix(1,0,0,1,320,870) translate(455.55555555555554 12.88888888888889)"/><path d="M520 302c0-16.57 13.43-30 30-30h200c16.57 0 30 13.43 30 30v128c0 16.57-13.43 30-30 30H550c-16.57 0-30-13.43-30-30z" stroke="#474747" fill-opacity="0"/><path d="M581.97 260.24v-5.9c0-7.25-5.88-13.13-13.12-13.13-7.24 0-13.12 5.9-13.12 13.14v5.9h6.64v-5.9c0-3.58 2.9-6.5 6.48-6.5 3.57 0 6.48 2.92 6.48 6.5v5.9h6.64z" fill="#876a22"/><path d="M581.98 260.26h5.42v20.83H550v-20.84h5.72v-7.1c0-7.28 5.87-13.16 13.13-13.16 7.26 0 13.13 5.88 13.13 13.15v7.1zm-6.66 0v-7.1c0-3.6-2.88-6.5-6.47-6.5-3.6 0-6.47 2.9-6.47 6.5v7.1h12.94z" fill="#daa835"/><path d="M550 281.1h37.4v.9H550z" fill="#876a22"/><use xlink:href="#b" transform="matrix(1,0,0,1,520,430) translate(18.567901234567927 12.88888888888889)"/><use xlink:href="#c" transform="matrix(1,0,0,1,520,430) translate(76.74074074074076 12.88888888888889)"/><use xlink:href="#d" transform="matrix(1,0,0,1,520,430) translate(141.7283950617284 12.88888888888889)"/><use xlink:href="#e" transform="matrix(1,0,0,1,520,430) translate(152.54320987654322 12.88888888888889)"/><path d="M520 613.42c0-16.57 13.43-30 30-30h200c16.57 0 30 13.43 30 30v128c0 16.57-13.43 30-30 30H550c-16.57 0-30-13.43-30-30z" stroke="#474747" fill-opacity="0"/><path d="M581.97 571.66v-5.9c0-7.26-5.88-13.14-13.12-13.14-7.24 0-13.12 5.88-13.12 13.14v5.9h6.64v-5.9c0-3.58 2.9-6.5 6.48-6.5 3.57 0 6.48 2.92 6.48 6.5v5.9h6.64z" fill="#876a22"/><path d="M581.98 571.68h5.42v20.83H550V571.7h5.72v-7.1c0-7.3 5.87-13.16 13.13-13.16 7.26 0 13.13 5.87 13.13 13.15v7.1zm-6.66 0v-7.1c0-3.6-2.88-6.5-6.47-6.5-3.6 0-6.47 2.9-6.47 6.5v7.1h12.94z" fill="#daa835"/><path d="M550 592.5h37.4v.9H550z" fill="#876a22"/><use xlink:href="#b" transform="matrix(1,0,0,1,520,741.4173228346456) translate(18.567901234567927 12.88888888888889)"/><use xlink:href="#c" transform="matrix(1,0,0,1,520,741.4173228346456) translate(76.74074074074076 12.88888888888889)"/><use xlink:href="#d" transform="matrix(1,0,0,1,520,741.4173228346456) translate(141.7283950617284 12.88888888888889)"/><use xlink:href="#f" transform="matrix(1,0,0,1,520,741.4173228346456) translate(152.54320987654322 12.88888888888889)"/><path d="M920 302c0-16.57 13.43-30 30-30h200c16.57 0 30 13.43 30 30v128c0 16.57-13.43 30-30 30H950c-16.57 0-30-13.43-30-30z" stroke="#474747" fill-opacity="0"/><path d="M981.97 260.24v-5.9c0-7.25-5.88-13.13-13.12-13.13-7.24 0-13.12 5.9-13.12 13.14v5.9h6.64v-5.9c0-3.58 2.9-6.5 6.48-6.5 3.57 0 6.48 2.92 6.48 6.5v5.9h6.64z" fill="#876a22"/><path d="M981.98 260.26h5.42v20.83H950v-20.84h5.72v-7.1c0-7.28 5.87-13.16 13.13-13.16 7.26 0 13.13 5.88 13.13 13.15v7.1zm-6.66 0v-7.1c0-3.6-2.88-6.5-6.47-6.5-3.6 0-6.47 2.9-6.47 6.5v7.1h12.94z" fill="#daa835"/><path d="M950 281.1h37.4v.9H950z" fill="#876a22"/><use xlink:href="#g" transform="matrix(1,0,0,1,920,430) translate(18.049382716049394 12.88888888888889)"/><use xlink:href="#h" transform="matrix(1,0,0,1,920,430) translate(82.19753086419753 12.88888888888889)"/><use xlink:href="#i" transform="matrix(1,0,0,1,920,430) translate(153.06172839506172 12.88888888888889)"/><path d="M920 613.42c0-16.57 13.43-30 30-30h200c16.57 0 30 13.43 30 30v128c0 16.57-13.43 30-30 30H950c-16.57 0-30-13.43-30-30z" stroke="#474747" fill-opacity="0"/><path d="M981.97 571.66v-5.9c0-7.26-5.88-13.14-13.12-13.14-7.24 0-13.12 5.88-13.12 13.14v5.9h6.64v-5.9c0-3.58 2.9-6.5 6.48-6.5 3.57 0 6.48 2.92 6.48 6.5v5.9h6.64z" fill="#876a22"/><path d="M981.98 571.68h5.42v20.83H950V571.7h5.72v-7.1c0-7.3 5.87-13.16 13.13-13.16 7.26 0 13.13 5.87 13.13 13.15v7.1zm-6.66 0v-7.1c0-3.6-2.88-6.5-6.47-6.5-3.6 0-6.47 2.9-6.47 6.5v7.1h12.94z" fill="#daa835"/><path d="M950 592.5h37.4v.9H950z" fill="#876a22"/><use xlink:href="#g" transform="matrix(1,0,0,1,920,741.4173228346456) translate(18.049382716049394 12.88888888888889)"/><use xlink:href="#h" transform="matrix(1,0,0,1,920,741.4173228346456) translate(82.19753086419753 12.88888888888889)"/><use xlink:href="#j" transform="matrix(1,0,0,1,920,741.4173228346456) translate(153.06172839506172 12.88888888888889)"/><path d="M220 461.52c0 20.52-17.92 37.17-40 37.17s-40-16.66-40-37.18 17.92-37.17 40-37.17 40 16.65 40 37.17z" fill="#9d5025"/><path d="M140 458.47h80v3.05h-80v-3.05z" fill="#9d5025"/><path d="M220 458.47c0 20.52-17.92 37.17-40 37.17s-40-16.65-40-37.17c0-20.5 17.92-37.17 40-37.17s40 16.66 40 37.17z" fill="#f58536"/><path d="M149.84 462.17v-.97c.3-4.5 3-8.26 7.4-10.23.43-8.3 8.03-14.7 17-14.27 5.6.25 10.3 2.9 13.14 7.4 4.58-1.78 9.82.18 11.75 4.4.3.6.48 1.1.6 1.72 6.03 1.1 10.37 6.47 10.37 10.98v.9c0 5.5-6.15 10.33-13.14 10.33h-34.04c-6.93.03-13.08-4.8-13.08-10.26z" fill="#fff"/><path d="M188.2 448.06l-2.56 1.63-1.3-2.63c-2-4.08-6.05-6.6-10.9-6.62h-.05c-6.63 0-12.05 5.02-12.05 11.22v2.08l-1.87.5c-3.18 1.2-5.27 3.78-5.53 6.97v.9c0 3.02 3.96 6.5 9.02 6.5h34.08c5.1 0 9-3.48 9-6.5v-.9c0-3.04-3.63-7.02-7.85-7.33l-2.3-.18-.15-2.1c0-.9-.32-1.64-.84-2.38-1.5-2.05-4.52-2.56-6.7-1.15z" fill="#f58536"/><use xlink:href="#k" transform="matrix(1,0,0,1,140,498.695652173913) translate(9.901234567901238 14.222222222222221)"/><use xlink:href="#l" transform="matrix(1,0,0,1,140,498.695652173913) translate(6.938271604938279 35.55555555555556)"/><path d="M745.7 341.57c0 21.2-19.2 38.42-42.84 38.42-23.66 0-42.86-17.22-42.86-38.43 0-21.2 19.2-38.42 42.86-38.42 23.65 0 42.85 17.2 42.85 38.42z" fill="#9d5025"/><path d="M745.7 338.42c0 21.2-19.2 38.42-42.84 38.42-23.66 0-42.86-17.2-42.86-38.42 0-21.2 19.2-38.42 42.86-38.42 23.65 0 42.85 17.2 42.85 38.42z" fill="#f58536"/><path d="M714.45 320.58h4.52v35.66h-4.52v-35.66zM727.17 329.6l11.82 8.64-11.83 9V329.6z" fill="#fff"/><path d="M685.33 336.4l2.6 1.87-2.87 2.17h44.1v-4.04h-43.83zM685.06 322.6h33.9v-4.04h-33.63l2.58 1.88-2.84 2.17zM687.9 356.1l-2.84 2.17h33.9v-4.05h-33.63l2.58 1.88zM675.64 331.36l9.47 6.9-9.46 7.2v-14.1zM675.64 313.53l9.47 6.9-9.46 7.2v-14.1zM675.64 349.2l9.47 6.9-9.46 7.2v-14.1z" fill="#fff"/><use xlink:href="#m" transform="matrix(1,0,0,1,660,380) translate(26.111111111111114 14.222222222222221)"/><use xlink:href="#l" transform="matrix(1,0,0,1,660,380) translate(9.93827160493828 35.55555555555556)"/><path d="M745.7 653c0 21.2-19.2 38.4-42.84 38.4-23.66 0-42.86-17.2-42.86-38.4 0-21.22 19.2-38.43 42.86-38.43 23.65 0 42.85 17.2 42.85 38.42z" fill="#9d5025"/><path d="M745.7 649.84c0 21.2-19.2 38.42-42.84 38.42-23.66 0-42.86-17.2-42.86-38.42 0-21.2 19.2-38.42 42.86-38.42 23.65 0 42.85 17.2 42.85 38.42z" fill="#f58536"/><path d="M714.45 632h4.52v35.66h-4.52V632zM727.17 641.03l11.82 8.63-11.83 9v-17.63z" fill="#fff"/><path d="M685.33 647.82l2.6 1.87-2.87 2.16h44.1v-4.04h-43.83zM685.06 634.03h33.9v-4.05h-33.63l2.58 1.88-2.84 2.17zM687.9 667.52l-2.84 2.17h33.9v-4.06h-33.63l2.58 1.88zM675.64 642.78l9.47 6.9-9.46 7.2v-14.1zM675.64 624.95l9.47 6.9-9.46 7.2v-14.1zM675.64 660.62l9.47 6.9-9.46 7.2v-14.1z" fill="#fff"/><use xlink:href="#m" transform="matrix(1,0,0,1,660,691.4173228346456) translate(26.111111111111114 14.222222222222221)"/><use xlink:href="#l" transform="matrix(1,0,0,1,660,691.4173228346456) translate(9.93827160493828 35.55555555555556)"/><path d="M480 250c0-16.57 13.43-30 30-30h720c16.57 0 30 13.43 30 30v200c0 16.57-13.43 30-30 30H510c-16.57 0-30-13.43-30-30z" fill-opacity="0"/><path d="M495.04 224.1l3.17-1.7 4.72-1.56 4.93-.76L510 220h15m15 0h30m15 0h30m15 0h30m15 0h30m15 0h30m15 0h30m15 0h30m15 0h30m15 0h30m15 0h30m15 0h30m15 0h30m15 0h30m15 0h30m15 0h30m15 0h15l5 .42 4.82 1.22 4.54 2 .6.42m10.95 10.98l1.7 3.17 1.56 4.72.76 4.93.08 2.15v16.67m0 16.66v33.34m0 16.66v33.34m0 16.66v33.34m0 16.66V450l-.42 5-1.22 4.82-2 4.54-.42.6m-10.98 10.95l-3.17 1.7-4.72 1.56-4.93.76-2.15.08h-15m-15 0h-30m-15 0h-30m-15 0h-30m-15 0h-30m-15 0h-30m-15 0h-30m-15 0h-30m-15 0h-30m-15 0h-30m-15 0h-30m-15 0h-30m-15 0h-30m-15 0h-30m-15 0h-30m-15 0h-30m-15 0h-15l-5-.42-4.82-1.22-4.54-2-.6-.42m-10.95-10.98l-1.7-3.17-1.56-4.72-.76-4.93L480 450v-16.67m0-16.66v-33.34m0-16.66v-33.34m0-16.66v-33.34m0-16.66V250l.42-5 1.22-4.82 2-4.54.42-.6" stroke="#f7981f" stroke-width="3" fill="none"/><use xlink:href="#n" transform="matrix(1,0,0,1,479.99999999999994,450) translate(371.75925925925924 12.88888888888889)"/><use xlink:href="#o" transform="matrix(1,0,0,1,479.99999999999994,450) translate(399.3641975308642 12.88888888888889)"/><path d="M480 571.42c0-16.57 13.43-30 30-30h720c16.57 0 30 13.43 30 30V810c0 16.57-13.43 30-30 30H510c-16.57 0-30-13.43-30-30z" fill-opacity="0"/><path d="M495.04 545.5l3.17-1.68 4.72-1.56 4.93-.77 2.15-.08h15m15 0h30m15 0h30m15 0h30m15 0h30m15 0h30m15 0h30m15 0h30m15 0h30m15 0h30m15 0h30m15 0h30m15 0h30m15 0h30m15 0h30m15 0h30m15 0h15l5 .4 4.82 1.24 4.54 2 .6.42m10.95 10.98l1.7 3.17 1.56 4.7.76 4.93.08 2.16v15.9m0 15.9v31.82m0 15.9v31.82m0 15.9v31.8m0 15.92v31.8m0 15.9V810l-.42 5-1.22 4.82-2 4.54-.42.6m-10.98 10.95l-3.17 1.7-4.72 1.56-4.93.76-2.15.08h-15m-15 0h-30m-15 0h-30m-15 0h-30m-15 0h-30m-15 0h-30m-15 0h-30m-15 0h-30m-15 0h-30m-15 0h-30m-15 0h-30m-15 0h-30m-15 0h-30m-15 0h-30m-15 0h-30m-15 0h-30m-15 0h-15l-5-.42-4.82-1.22-4.54-2-.6-.42m-10.95-10.98l-1.7-3.17-1.56-4.72-.76-4.93L480 810v-15.9m0-15.9v-31.82m0-15.9v-31.82m0-15.9v-31.82m0-15.9v-31.8m0-15.92v-15.9l.42-5.02 1.22-4.8 2-4.55.42-.6" stroke="#f7981f" stroke-width="3" fill="none"/><use xlink:href="#n" transform="matrix(1,0,0,1,479.99999999999994,810) translate(371.75925925925924 12.88888888888889)"/><use xlink:href="#p" transform="matrix(1,0,0,1,479.99999999999994,810) translate(399.3641975308642 12.88888888888889)"/><path d="M355 461.74c0 23.52-21.28 42.6-47.5 42.6s-47.5-19.08-47.5-42.6c0-23.5 21.28-42.6 47.5-42.6s47.5 19.1 47.5 42.6z" fill="#9d5025"/><path d="M355 458.25c0 23.5-21.28 42.6-47.5 42.6s-47.5-19.1-47.5-42.6 21.28-42.6 47.5-42.6 47.5 19.1 47.5 42.6z" fill="#f58536"/><path d="M267.56 445.82h17.24v24.86h-17.24v-24.86zM322.68 428.83h15.4v13.8h-15.4v-13.8zM322.68 451.34h15.4v13.8h-15.4v-13.8zM322.68 473.87h15.4v13.8h-15.4v-13.8z" fill="#fff"/><path d="M318.42 460.05l2.58-1.1 1.68-.75-1.68-.74-2.28-1.02-6.87-3.04v3.04h-20.6l23.42-13.47 1.86 2.6 3.88-5.9 1.14-1.72 1.14-1.72-2.2.22-2.48.26-7.33.8 1.77 2.43-28.74 16.5-3.16 1.82 3.8 2.16 28.1 16.17-1.77 2.42 7.33.78 2.5.27 2.18.22-1.14-1.72-1.13-1.72-3.87-5.9-1.86 2.6-23.43-13.48h20.6V463l6.58-2.95z" fill="#fff"/><use xlink:href="#q" transform="matrix(1,0,0,1,260,504.3478260869565) translate(18.932098765432105 14.222222222222221)"/><use xlink:href="#r" transform="matrix(1,0,0,1,260,504.3478260869565) translate(27.74691358024692 35.55555555555556)"/><use xlink:href="#s" transform="matrix(1,0,0,1,260,504.3478260869565) translate(12.487654320987659 56.888888888888886)"/><path d="M501 350.1H313.5c-3.3 0-6 2.68-6 6v58.55" stroke="#5e5e5e" stroke-width="2" fill="none"/><path d="M516.26 350.1L502 354.72v-9.27z" stroke="#5e5e5e" stroke-width="2" fill="#5e5e5e"/><path d="M308.5 415.7l-1-.05-1 .05v-1.07h2z" fill="#5e5e5e"/><path d="M501 661.5H312.44c-3.3 0-6-2.68-6-6V505.3" stroke="#5e5e5e" stroke-width="2" fill="none"/><path d="M516.26 661.5L502 666.15v-9.27z" stroke="#5e5e5e" stroke-width="2" fill="#5e5e5e"/><path d="M307.44 504.34v.97h-2v-1.07z" fill="#5e5e5e"/><path d="M220.88 463.47h20.7" stroke="#5e5e5e" stroke-width="2" fill="none"/><path d="M220.9 464.47h-1.08l.12-2h.96z" fill="#5e5e5e"/><path d="M256.85 463.47l-14.27 4.63v-9.27z" stroke="#5e5e5e" stroke-width="2" fill="#5e5e5e"/><path d="M781.5 350.1h120" stroke="#5e5e5e" stroke-width="2" fill="none"/><path d="M781.53 351.1h-1.03v-2h1.03z" fill="#5e5e5e"/><path d="M916.76 350.1l-14.26 4.63v-9.27z" stroke="#5e5e5e" stroke-width="2" fill="#5e5e5e"/><path d="M781.5 661.5H901" stroke="#5e5e5e" stroke-width="2" fill="none"/><path d="M781.53 662.5h-1.03v-2h1.03z" fill="#5e5e5e"/><path d="M916.26 661.5L902 666.15v-9.27z" stroke="#5e5e5e" stroke-width="2" fill="#5e5e5e"/><path d="M1023.46 320.1l-2.96 1.3v37.2l2.96 1.3 11.97-18.95-11.97-20.86z" fill="#9d5025"/><path d="M1030.35 358.47l-6.9 1.43v-39.8l6.9 1.4v36.97z" fill="#f58536"/><path d="M1026.72 318.63l3.63-1.6 17.27 24.62-17.27 21.3-3.63-1.6v-42.72z" fill="#9d5025"/><path d="M1038.95 360.8l-8.6 2.16v-45.94l8.6 2.16v41.62z" fill="#f58536"/><path d="M1034.4 315.22l4.56-2.03 25.46 31.14-25.46 22.46-4.56-2.04v-49.54z" fill="#9d5025"/><path d="M1050 363.2l-11.04 3.6v-53.6l11.03 3.58v46.43z" fill="#f58536"/><path d="M1044.1 310.88l5.9-2.6 27.54 33.5-27.55 29.94-5.9-2.6v-58.24z" fill="#9d5025"/><path d="M1079.5 358.6L1050 371.7v-63.44l29.5 13.13v37.2z" fill="#f58536"/><use xlink:href="#t" transform="matrix(1,0,0,1,1020.5,371.7171717171717) translate(-3.0679012345678984 14.222222222222221)"/><use xlink:href="#u" transform="matrix(1,0,0,1,1020.5,371.7171717171717) translate(12.240740740740744 35.55555555555556)"/><path d="M1023.46 631.5l-2.96 1.33V670l2.96 1.32 11.97-18.95-11.97-20.86z" fill="#9d5025"/><path d="M1030.35 669.88l-6.9 1.44v-39.8l6.9 1.38v36.98z" fill="#f58536"/><path d="M1026.72 630.05l3.63-1.6 17.27 24.6-17.27 21.33-3.63-1.6v-42.73z" fill="#9d5025"/><path d="M1038.95 672.22l-8.6 2.16v-45.94l8.6 2.16v41.62z" fill="#f58536"/><path d="M1034.4 626.64l4.56-2.04 25.46 31.15-25.46 22.47-4.56-2.04v-49.54z" fill="#9d5025"/><path d="M1050 674.63l-11.04 3.6V624.6l11.03 3.6v46.43z" fill="#f58536"/><path d="M1044.1 622.3l5.9-2.6 27.54 33.5-27.55 29.93-5.9-2.6V622.3z" fill="#9d5025"/><path d="M1079.5 670l-29.5 13.13V619.7l29.5 13.13V670z" fill="#f58536"/><use xlink:href="#t" transform="matrix(1,0,0,1,1020.5,683.1344945518173) translate(-3.0679012345678984 14.222222222222221)"/><use xlink:href="#u" transform="matrix(1,0,0,1,1020.5,683.1344945518173) translate(12.240740740740744 35.55555555555556)"/><path d="M900 270c0-16.57 13.43-30 30-30h240c16.57 0 30 13.43 30 30v520c0 16.57-13.43 30-30 30H930c-16.57 0-30-13.43-30-30z" fill-opacity="0"/><path d="M908.1 249.67l1.5-1.64m9.46-5.9l3.86-1.3 4.93-.75L930 240h14.3m14.27 0h2.86m14.28 0h28.6m14.27 0h2.86m14.28 0h28.6m14.27 0h2.86m14.28 0h28.6m14.27 0h2.86m14.28 0h14.3l5 .42 4.82 1.22 1.1.5m9.4 5.95l1.65 1.5m5.9 9.46l1.3 3.86.75 4.93.08 2.15v15.48m0 15.47v3.1m0 15.47v30.96m0 15.47v3.1m0 15.47v30.96m0 15.47v3.1m0 15.47v30.96m0 15.47v3.1m0 15.47v30.96m0 15.47v3.1m0 15.47v30.96m0 15.47v3.1m0 15.47v30.96m0 15.47v3.1m0 15.47v30.96m0 15.47v3.1m0 15.47V790l-.42 5-1.22 4.82-.5 1.1m-5.95 9.4l-1.5 1.65m-9.46 5.9l-3.86 1.3-4.93.75-2.15.08h-14.3m-14.27 0h-2.86m-14.28 0h-28.6m-14.27 0h-2.86m-14.28 0h-28.6m-14.27 0h-2.86m-14.28 0h-28.6m-14.27 0h-2.86m-14.28 0H930l-5-.42-4.82-1.22-1.1-.5m-9.4-5.95l-1.65-1.5m-5.9-9.46l-1.3-3.86-.75-4.93L900 790v-15.48m0-15.47v-3.1m0-15.47v-30.96m0-15.47v-3.1m0-15.47v-30.96m0-15.47v-3.1m0-15.47v-30.96m0-15.47v-3.1m0-15.47v-30.96m0-15.47v-3.1m0-15.47v-30.96m0-15.47v-3.1m0-15.47v-30.96m0-15.47v-3.1m0-15.47v-30.96m0-15.47v-3.1m0-15.47V270l.42-5 1.22-4.82.5-1.1" stroke="#474747" stroke-width="3" fill="none"/><use xlink:href="#v" transform="matrix(1,0,0,1,900,790) translate(68.27160493827162 12.88888888888889)"/><use xlink:href="#w" transform="matrix(1,0,0,1,900,790) translate(113.50617283950618 12.88888888888889)"/><use xlink:href="#x" transform="matrix(1,0,0,1,900,790) translate(181.55555555555554 12.88888888888889)"/><path d="M1418.4 503.46l38.38 5.5v3.24c0 4.82-17.2 8.7-38.4 8.7-21.18 0-38.38-3.88-38.38-8.7v-3.52z" fill="#8c3123"/><path d="M1418.4 526.88c16.03 0 29.76-2.26 35.48-5.43l1.9-3.05.77-2.8v3.47l-12.6 51.68c0 3.23-11.43 5.8-25.54 5.8-14.1 0-25.55-2.57-25.55-5.8l-12.58-51.68v-3.4l2.9 5.9c5.8 3.1 19.37 5.3 35.24 5.3z" fill="#8c3123"/><path d="M1418.4 500c21.2 0 38.4 3.9 38.4 8.7 0 4.78-17.2 8.65-38.4 8.65s-38.4-3.84-38.4-8.66c0-4.83 17.2-8.7 38.4-8.7z" fill="#e05243"/><path d="M1418.4 523.36c19.75 0 36-3.34 38.14-7.7l-12.6 51.67c0 3.22-11.43 5.8-25.55 5.8-14.12 0-25.57-2.58-25.57-5.8l-12.58-51.68c2.13 4.37 18.38 7.7 38.14 7.7z" fill="#e05243"/><use xlink:href="#y" transform="matrix(1,0,0,1,1380,576.5517241379309) translate(2.0308641975308674 14.222222222222221)"/><use xlink:href="#z" transform="matrix(1,0,0,1,1380,576.5517241379309) translate(7.932098765432102 35.55555555555556)"/><use xlink:href="#A" transform="matrix(1,0,0,1,1380,576.5517241379309) translate(55.29012345679012 35.55555555555556)"/><use xlink:href="#B" transform="matrix(1,0,0,1,1380,576.5517241379309) translate(27.635802469135804 56.888888888888886)"/><path d="M1399.33 419.52c-.24-.26-.42-.52-.6-.78-1.04-1.65-1.58-3.16-1.95-4.98-1.52-6.02-5.53-10.66-11.85-13.77-4.44-2.27-8.94-3.74-14.23-3.17-7.05.73-13 2.94-17.14 8.05-2.37 3.03-4.02 5.8-5.4 9.27-1.3 3-1.17 6.23-2.75 9.13-.35.6-.72 1.1-1.14 1.65-1.1 1.43-2.56 2.73-3.35 4.24-1.93 3.77-.84 5.94 3.48 7.8.48.17.9.35 1.4.52 5.04 1.68 16.9 3.8 24.2 1.46 1.8-.48 3.27-1 4.92-1.77 5.83-2.6 11.67-5.3 17.5-7.94 2.74-1.17 4.93-2.5 7-4.46 1.88-1.82 1.82-3.5-.07-5.28z" fill="#4b612c"/><path d="M1378.73 398.93c3.24.97 5.84 2.23 8.5 4.17 1.83 1.22 6.8 5.52 7.94 10.87.1.82.22 1.63.38 2.4.16.36.38.65.65.93l.6 1.26s1.08 1.46 1.67 2.15c.76.9 1.03 1.8.22 2.68-1.9 2.03-4.34 3.45-7.3 4.75l.26-2.64-1.95-.5c-.75 1.43-.26 2.48 1.58 3.25-1.73.77-3.3 1.46-4.82 2.1-4.7 2.12-9.35 4.27-14.06 6.34-3.62 1.57-7.14 2.22-11.2 2.14-4.7-.16-8.7-.8-13.14-2.1-1.9-.62-3.46-3.13-2.87-4.72.26-.77 1.23-1.25 2.15-1.1 3.3.3 6.6.62 9.9.94 3.63.37 7.3 1.06 10.93 1.06 4.17 0 8.1-1.06 12-2.4-1.18.1-2.37.13-3.5.2-3.3.2-6.55.3-9.8.66-4.05.44-7.84-.3-11.68-1.1-3.14-.57-5.63-2-7.4-4.22-.72-.9-1.15-1.86-.6-2.8.42.33.9.94 1.24.9.37-.04 1.02-.57 1.24-1.02.5-1.1.8-2.23 1.2-3.37.6-2.15 1.23-3.97 2.1-6.08 1.68-3.58 3.52-7.15 6.38-10.23 1.08-1.22 2.1-2.2 3.52-3.2 1.68-1.26 3.9-1.67 6.1-1.87 2.55-.2 5.15-.08 7.8-.12.1 0 .27.12.43.16z" fill="#759c3e"/><path d="M1395.18 413.98c-.53-1-1.05-1.8-1.7-2.75-.62-.7-1.26-1.23-2.12-1.73-3.82-2.22-9.05-1.4-11.7 1.77-2.16 2.54-3.15 5.42-3.73 8.43-.17.9-.3 1.8-.5 2.97-1.13-1.64-1.64-3.25-1.67-5.13-.2-3.64.4-7.15 3.14-10.18 1.93-2.16 4.23-3.93 7.6-4.32.94-.04 1.75-.02 2.7.08 1.03.75 2.25 1.36 3.05 2.24 2.23 2.3 3.67 4.58 4.72 7.4.1.42.17.8.2 1.22z" fill="#b7ca9d"/><path d="M1378.7 398.93c-3.73.86-5.9 3.18-7.68 5.85-2.56 3.83-4.43 7.88-4.32 12.33 0 2.7.6 4.97 1.9 7.42.13.25.22.52.4.92-1.37.06-2.57-.46-3.32-1.43-1.42-1.7-2.03-3.52-1.9-5.63.14-5.74 1.47-11.27 5.97-15.9 1.03-1.03 2-1.87 3.22-2.76 1.2-.9 2.63-1.3 4.25-1.23z" fill="#b7ca9d"/><path d="M1396.8 418.57c0 1.4-1.18 2.17-2.3 2.93-5.7 3.8-12.36 5.82-19.42 6.9-3.14.5-6.32.93-9.5 1.25-3.84.38-7.44-.75-11.1-1.54-1.5-.3-2.94-.7-4.48-1.08 0-.14 0-.26.05-.4.7-.05 1.3-.05 2 0 2.96.42 5.86 1.06 8.8 1.3 2.86.25 5.34.25 8.2 0 5.33-.45 9.82-1.32 14.87-2.9 2.95-1 5.33-1.97 8.05-3.3 2.06-.96 3.97-2.17 4.2-4.4zM1389.72 425.02c1.4-.7 2.8-1.48 4.26-2.1.66-.18 1.26-.25 1.96-.23l.14.28-4.42 2.5z" fill="#b7ca9d"/><use xlink:href="#C" transform="matrix(1,0,0,1,1340,440) translate(15.734567901234572 14.222222222222221)"/><path d="M1443.64 408.25l-4.57-3.76-2.28 3.92 3.5.37 3.34-.55zM1439.85 413.1l16.54.95 16.54-.94-16.55-8.18-16.55 8.2zM1467.58 408.25l4.02.63 4.4-.46-3.93-7.4-4.5 7.23z" fill="#3c4929"/><path d="M1450.97 435.03l9.46-1.97 9.13 1.9-9.46 8.04-9.13-7.97z" fill="#b7ca9d"/><path d="M1452.02 407.5l-4.93-.76-5.07-5.65 5.06-9.13 4.92 1.37v14.16z" fill="#759c3e"/><path d="M1439.84 397.4v-5.23l16.55-7.4 4.38 8.27-8.76 3.16-4.92-1.35v11.75l9.3-1.68 4.94 19.47-4.95 27.5-4.97-2.2v-6.25l-4.33-1.6v-29.4l-7.26.66v-5.22l-3.05.53v-9.85l3.04-1.15z" fill="#4b612c"/><path d="M1464.96 388.6l3.5 1.55 4.48 2.02v5.23l3.06 1.15v9.86l-3.06-.52v5.23l-3.9-.32-3.35-.34v5.91h7.24v5.37l-3.37.27v5.42l-8.2 1.48v6.24l8.18-2.14.02 5.5-8.2 2.95v6.25l-4.97 2.2v-46.98l4.37.8v-9.52l-4.37-1.35v-10.07l8.56 3.83z" fill="#759c3e"/><path d="M1461.34 393.26l-4.94-1.77-9.3 3.3 4.93 1.4 9.3-2.94z" fill="#3c4929"/><path d="M1460.77 394.82h4.92v11.76l-4.93-.88v-10.88z" fill="#4b612c"/><path d="M1447.1 394.8l9.3-3.3 1.95.7 3 1.06 4.34 1.55-4.94 1.4-4.37-1.4-4.38 1.4-4.92-1.4z" fill="#3c4929"/><g><use xlink:href="#D" transform="matrix(1,0,0,1,1436.7933194154489,451.91080451423556) translate(4.222222222222225 14.222222222222221)"/></g><path d="M87.45 453.74c7.38 0 12.54 4.25 12.54 10.3v13.14h-6.5v-8.92h-1.78v8.92h-9.97c-.66-6.66-6.56-11.2-14.83-11.2h-5.74v-3.63c6.32-.5 11.4-2.74 11.95-8.63h.58zM46.23 453.73h.62c.58 5.9 5.63 8.12 11.95 8.64v3.6h-5.63c-8.26 0-14.2 4.57-14.82 11.2h-9.78v-8.9H26.8v8.9H20v-13.16c0-6.07 5.16-10.3 12.57-10.3z" fill="#7d7c7c"/><path d="M66.86 471.52c7.38 0 12.54 4.25 12.54 10.3V495h-6.52v-8.95h-1.75v8.92H49.08v-8.92h-1.7v8.92h-6.8v-13.14c0-6.06 5.17-10.3 12.54-10.3zM39.38 428.08l10.88 7.05v3.06c.06 5.54-4.8 10.08-10.86 10.14h-.02c-5.97 0-10.88-4.53-10.88-10.6v-2.67zM80.58 428.08l10.88 7.05v3.06c.06 5.54-4.8 10.08-10.86 10.14h-.02c-5.97 0-10.88-4.53-10.88-10.6v-2.67zM60 441.95l9.6 6.2v2.74c.1 4.9-4.2 8.95-9.57 9.04H60c-5.45-.12-9.75-4.23-9.62-9.2 0-.06 0-.12.02-.2v-2.44z" fill="#7d7c7c"/><path d="M80.6 425c6.1-.1 11.16 4.36 11.27 9.95.1 5.6-4.76 10.2-10.88 10.3-6.13.12-11.2-4.34-11.3-9.94v-.2c-.04-5.52 4.8-10.06 10.9-10.1zM59.97 438.8c5.43-.1 9.93 3.82 10.07 8.78.12 4.96-4.17 9.08-9.6 9.2-5.42.1-9.93-3.8-10.06-8.77v-.2c-.06-4.9 4.22-8.92 9.6-9zM87.45 450.6c7.38 0 12.54 4.26 12.54 10.32v13.18h-6.5v-8.93h-1.78v8.93h-9.97c-.66-6.67-6.56-11.18-14.83-11.18h-5.74v-1.15c6.48-.6 11.4-5.2 11.95-11.1h.58zM46.23 450.62h.62c.54 5.94 5.47 10.54 11.95 11.13v1.12h-5.63c-8.26 0-14.2 4.56-14.82 11.2h-9.78v-8.9H26.8v8.92H20V460.9c0-6.08 5.16-10.3 12.57-10.3z" fill="#d2d3d3"/><path d="M66.86 468.44c7.38 0 12.54 4.25 12.54 10.3v13.17h-6.52V483h-1.75v8.9H49.08V483h-1.7v8.9h-6.8v-13.15c0-6.06 5.17-10.3 12.54-10.3zM39.38 425c6.12-.1 11.17 4.36 11.28 9.95.1 5.6-4.76 10.2-10.88 10.3-6.12.12-11.17-4.34-11.28-9.94v-.2c-.05-5.52 4.8-10.04 10.88-10.1z" fill="#d2d3d3"/><g><use xlink:href="#E" transform="matrix(1,0,0,1,20,495) translate(18.2962962962963 14.222222222222221)"/></g><path d="M101 470h21.6" stroke="#5e5e5e" stroke-width="2" fill="none"/><path d="M101.02 471H100v-2H101z" fill="#5e5e5e"/><path d="M137.88 470l-14.27 4.64v-9.28z" stroke="#5e5e5e" stroke-width="2" fill="#5e5e5e"/><defs><path fill="#333" d="M23 0v-37h61v-169l-59 37v-38l62-41h46v211h57V0H23" id="F"/><path fill="#333" d="M101-251c68 0 84 54 84 127C185-50 166 4 99 4S15-52 14-124c-1-75 17-127 87-127zm-1 216c37-5 36-46 36-89s4-89-36-89c-39 0-36 45-36 89 0 43-3 85 36 89" id="G"/><path fill="#333" d="M24 0v-54h51V0H24" id="H"/><path fill="#333" d="M4 7l51-268h42L46 7H4" id="I"/><path fill="#333" d="M115-159c48 0 72 30 72 78 0 54-30 85-83 85-64 0-91-50-91-122 0-98 58-163 141-120 15 8 21 24 27 44l-47 6c-5-31-48-31-61-4-7 14-11 33-11 60 9-17 28-27 53-27zM102-35c24 0 36-20 36-45s-11-43-37-43c-23 0-36 14-36 38 0 27 11 50 37 50" id="J"/><g id="a"><use transform="matrix(0.049382716049382706,0,0,0.049382716049382706,0,0)" xlink:href="#F"/><use transform="matrix(0.049382716049382706,0,0,0.049382716049382706,9.87654320987654,0)" xlink:href="#G"/><use transform="matrix(0.049382716049382706,0,0,0.049382716049382706,19.75308641975308,0)" xlink:href="#H"/><use transform="matrix(0.049382716049382706,0,0,0.049382716049382706,24.691358024691354,0)" xlink:href="#G"/><use transform="matrix(0.049382716049382706,0,0,0.049382716049382706,34.5679012345679,0)" xlink:href="#H"/><use transform="matrix(0.049382716049382706,0,0,0.049382716049382706,39.50617283950617,0)" xlink:href="#G"/><use transform="matrix(0.049382716049382706,0,0,0.049382716049382706,49.38271604938271,0)" xlink:href="#H"/><use transform="matrix(0.049382716049382706,0,0,0.049382716049382706,54.32098765432098,0)" xlink:href="#G"/><use transform="matrix(0.049382716049382706,0,0,0.049382716049382706,64.19753086419752,0)" xlink:href="#I"/><use transform="matrix(0.049382716049382706,0,0,0.049382716049382706,69.13580246913578,0)" xlink:href="#F"/><use transform="matrix(0.049382716049382706,0,0,0.049382716049382706,79.01234567901233,0)" xlink:href="#J"/></g><path fill="#333" d="M24-248c93 1 206-16 204 79-1 75-69 88-152 82V0H24v-248zm52 121c47 0 100 7 100-41 0-47-54-39-100-39v80" id="K"/><path fill="#333" d="M85 4C-2 5 27-109 22-190h50c7 57-23 150 33 157 60-5 35-97 40-157h50l1 190h-47c-2-12 1-28-3-38-12 25-28 42-61 42" id="L"/><path fill="#333" d="M135-194c52 0 70 43 70 98 0 56-19 99-73 100-30 1-46-15-58-35L72 0H24l1-261h50v104c11-23 29-37 60-37zM114-30c31 0 40-27 40-66 0-37-7-63-39-63s-41 28-41 65c0 36 8 64 40 64" id="M"/><path fill="#333" d="M25 0v-261h50V0H25" id="N"/><path fill="#333" d="M25-224v-37h50v37H25zM25 0v-190h50V0H25" id="O"/><path fill="#333" d="M190-63c-7 42-38 67-86 67-59 0-84-38-90-98-12-110 154-137 174-36l-49 2c-2-19-15-32-35-32-30 0-35 28-38 64-6 74 65 87 74 30" id="P"/><g id="b"><use transform="matrix(0.049382716049382706,0,0,0.049382716049382706,0,0)" xlink:href="#K"/><use transform="matrix(0.049382716049382706,0,0,0.049382716049382706,11.85185185185185,0)" xlink:href="#L"/><use transform="matrix(0.049382716049382706,0,0,0.049382716049382706,22.666666666666664,0)" xlink:href="#M"/><use transform="matrix(0.049382716049382706,0,0,0.049382716049382706,33.48148148148148,0)" xlink:href="#N"/><use transform="matrix(0.049382716049382706,0,0,0.049382716049382706,38.41975308641975,0)" xlink:href="#O"/><use transform="matrix(0.049382716049382706,0,0,0.049382716049382706,43.358024691358025,0)" xlink:href="#P"/></g><path fill="#333" d="M169-182c-1-43-94-46-97-3 18 66 151 10 154 114 3 95-165 93-204 36-6-8-10-19-12-30l50-8c3 46 112 56 116 5-17-69-150-10-154-114-4-87 153-88 188-35 5 8 8 18 10 28" id="Q"/><path fill="#333" d="M135-194c87-1 58 113 63 194h-50c-7-57 23-157-34-157-59 0-34 97-39 157H25l-1-190h47c2 12-1 28 3 38 12-26 28-41 61-42" id="R"/><path fill="#333" d="M185-48c-13 30-37 53-82 52C43 2 14-33 14-96s30-98 90-98c62 0 83 45 84 108H66c0 31 8 55 39 56 18 0 30-7 34-22zm-45-69c5-46-57-63-70-21-2 6-4 13-4 21h74" id="S"/><path fill="#333" d="M115-3C79 11 28 4 28-45v-112H4v-33h27l15-45h31v45h36v33H77v99c-1 23 16 31 38 25v30" id="T"/><g id="c"><use transform="matrix(0.049382716049382706,0,0,0.049382716049382706,0,0)" xlink:href="#Q"/><use transform="matrix(0.049382716049382706,0,0,0.049382716049382706,11.85185185185185,0)" xlink:href="#L"/><use transform="matrix(0.049382716049382706,0,0,0.049382716049382706,22.666666666666664,0)" xlink:href="#M"/><use transform="matrix(0.049382716049382706,0,0,0.049382716049382706,33.48148148148148,0)" xlink:href="#R"/><use transform="matrix(0.049382716049382706,0,0,0.049382716049382706,44.29629629629629,0)" xlink:href="#S"/><use transform="matrix(0.049382716049382706,0,0,0.049382716049382706,54.17283950617284,0)" xlink:href="#T"/></g><path fill="#333" d="M35-132v-50h50v50H35zM35 0v-49h50V0H35" id="U"/><use transform="matrix(0.049382716049382706,0,0,0.049382716049382706,0,0)" xlink:href="#U" id="d"/><path fill="#333" d="M182-182c0 78-84 86-111 141h115V0H12c-6-101 99-100 120-180 1-22-12-31-33-32-23 0-32 14-35 34l-49-3c5-45 32-70 84-70 51 0 83 22 83 69" id="V"/><path fill="#333" d="M165-50V0h-47v-50H5v-38l105-160h55v161h33v37h-33zm-47-37l2-116L46-87h72" id="W"/><g id="e"><use transform="matrix(0.049382716049382706,0,0,0.049382716049382706,0,0)" xlink:href="#F"/><use transform="matrix(0.049382716049382706,0,0,0.049382716049382706,9.87654320987654,0)" xlink:href="#G"/><use transform="matrix(0.049382716049382706,0,0,0.049382716049382706,19.75308641975308,0)" xlink:href="#H"/><use transform="matrix(0.049382716049382706,0,0,0.049382716049382706,24.691358024691354,0)" xlink:href="#G"/><use transform="matrix(0.049382716049382706,0,0,0.049382716049382706,34.5679012345679,0)" xlink:href="#H"/><use transform="matrix(0.049382716049382706,0,0,0.049382716049382706,39.50617283950617,0)" xlink:href="#G"/><use transform="matrix(0.049382716049382706,0,0,0.049382716049382706,49.38271604938271,0)" xlink:href="#H"/><use transform="matrix(0.049382716049382706,0,0,0.049382716049382706,54.32098765432098,0)" xlink:href="#G"/><use transform="matrix(0.049382716049382706,0,0,0.049382716049382706,64.19753086419752,0)" xlink:href="#I"/><use transform="matrix(0.049382716049382706,0,0,0.049382716049382706,69.13580246913578,0)" xlink:href="#V"/><use transform="matrix(0.049382716049382706,0,0,0.049382716049382706,79.01234567901233,0)" xlink:href="#W"/></g><g id="f"><use transform="matrix(0.049382716049382706,0,0,0.049382716049382706,0,0)" xlink:href="#F"/><use transform="matrix(0.049382716049382706,0,0,0.049382716049382706,9.87654320987654,0)" xlink:href="#G"/><use transform="matrix(0.049382716049382706,0,0,0.049382716049382706,19.75308641975308,0)" xlink:href="#H"/><use transform="matrix(0.049382716049382706,0,0,0.049382716049382706,24.691358024691354,0)" xlink:href="#G"/><use transform="matrix(0.049382716049382706,0,0,0.049382716049382706,34.5679012345679,0)" xlink:href="#H"/><use transform="matrix(0.049382716049382706,0,0,0.049382716049382706,39.50617283950617,0)" xlink:href="#F"/><use transform="matrix(0.049382716049382706,0,0,0.049382716049382706,49.38271604938271,0)" xlink:href="#H"/><use transform="matrix(0.049382716049382706,0,0,0.049382716049382706,54.32098765432098,0)" xlink:href="#G"/><use transform="matrix(0.049382716049382706,0,0,0.049382716049382706,64.19753086419752,0)" xlink:href="#I"/><use transform="matrix(0.049382716049382706,0,0,0.049382716049382706,69.13580246913578,0)" xlink:href="#V"/><use transform="matrix(0.049382716049382706,0,0,0.049382716049382706,79.01234567901233,0)" xlink:href="#W"/></g><path fill="#333" d="M135-150c-39-12-60 13-60 57V0H25l-1-190h47c2 13-1 29 3 40 6-28 27-53 61-41v41" id="X"/><path fill="#333" d="M128 0H69L1-190h53L99-40l48-150h52" id="Y"/><path fill="#333" d="M133-34C117-15 103 5 69 4 32 3 11-16 11-54c-1-60 55-63 116-61 1-26-3-47-28-47-18 1-26 9-28 27l-52-2c7-38 36-58 82-57s74 22 75 68l1 82c-1 14 12 18 25 15v27c-30 8-71 5-69-32zm-48 3c29 0 43-24 42-57-32 0-66-3-65 30 0 17 8 27 23 27" id="Z"/><g id="g"><use transform="matrix(0.049382716049382706,0,0,0.049382716049382706,0,0)" xlink:href="#K"/><use transform="matrix(0.049382716049382706,0,0,0.049382716049382706,11.85185185185185,0)" xlink:href="#X"/><use transform="matrix(0.049382716049382706,0,0,0.049382716049382706,18.76543209876543,0)" xlink:href="#O"/><use transform="matrix(0.049382716049382706,0,0,0.049382716049382706,23.703703703703702,0)" xlink:href="#Y"/><use transform="matrix(0.049382716049382706,0,0,0.049382716049382706,33.58024691358024,0)" xlink:href="#Z"/><use transform="matrix(0.049382716049382706,0,0,0.049382716049382706,43.456790123456784,0)" xlink:href="#T"/><use transform="matrix(0.049382716049382706,0,0,0.049382716049382706,49.33333333333333,0)" xlink:href="#S"/></g><g id="h"><use transform="matrix(0.049382716049382706,0,0,0.049382716049382706,0,0)" xlink:href="#Q"/><use transform="matrix(0.049382716049382706,0,0,0.049382716049382706,11.85185185185185,0)" xlink:href="#L"/><use transform="matrix(0.049382716049382706,0,0,0.049382716049382706,22.666666666666664,0)" xlink:href="#M"/><use transform="matrix(0.049382716049382706,0,0,0.049382716049382706,33.48148148148148,0)" xlink:href="#R"/><use transform="matrix(0.049382716049382706,0,0,0.049382716049382706,44.29629629629629,0)" xlink:href="#S"/><use transform="matrix(0.049382716049382706,0,0,0.049382716049382706,54.17283950617284,0)" xlink:href="#T"/><use transform="matrix(0.049382716049382706,0,0,0.049382716049382706,60.04938271604938,0)" xlink:href="#U"/></g><g id="i"><use transform="matrix(0.049382716049382706,0,0,0.049382716049382706,0,0)" xlink:href="#F"/><use transform="matrix(0.049382716049382706,0,0,0.049382716049382706,9.87654320987654,0)" xlink:href="#G"/><use transform="matrix(0.049382716049382706,0,0,0.049382716049382706,19.75308641975308,0)" xlink:href="#H"/><use transform="matrix(0.049382716049382706,0,0,0.049382716049382706,24.691358024691354,0)" xlink:href="#G"/><use transform="matrix(0.049382716049382706,0,0,0.049382716049382706,34.5679012345679,0)" xlink:href="#H"/><use transform="matrix(0.049382716049382706,0,0,0.049382716049382706,39.50617283950617,0)" xlink:href="#V"/><use transform="matrix(0.049382716049382706,0,0,0.049382716049382706,49.38271604938271,0)" xlink:href="#H"/><use transform="matrix(0.049382716049382706,0,0,0.049382716049382706,54.32098765432098,0)" xlink:href="#G"/><use transform="matrix(0.049382716049382706,0,0,0.049382716049382706,64.19753086419752,0)" xlink:href="#I"/><use transform="matrix(0.049382716049382706,0,0,0.049382716049382706,69.13580246913578,0)" xlink:href="#V"/><use transform="matrix(0.049382716049382706,0,0,0.049382716049382706,79.01234567901233,0)" xlink:href="#W"/></g><path fill="#333" d="M128-127c34 4 56 21 59 58 7 91-148 94-172 28-4-9-6-17-7-26l51-5c1 24 16 35 40 36 23 0 39-12 38-36-1-31-31-36-65-34v-40c32 2 59-3 59-33 0-20-13-33-34-33s-33 13-35 32l-50-3c6-44 37-68 86-68 50 0 83 20 83 66 0 35-22 52-53 58" id="aa"/><g id="j"><use transform="matrix(0.049382716049382706,0,0,0.049382716049382706,0,0)" xlink:href="#F"/><use transform="matrix(0.049382716049382706,0,0,0.049382716049382706,9.87654320987654,0)" xlink:href="#G"/><use transform="matrix(0.049382716049382706,0,0,0.049382716049382706,19.75308641975308,0)" xlink:href="#H"/><use transform="matrix(0.049382716049382706,0,0,0.049382716049382706,24.691358024691354,0)" xlink:href="#G"/><use transform="matrix(0.049382716049382706,0,0,0.049382716049382706,34.5679012345679,0)" xlink:href="#H"/><use transform="matrix(0.049382716049382706,0,0,0.049382716049382706,39.50617283950617,0)" xlink:href="#aa"/><use transform="matrix(0.049382716049382706,0,0,0.049382716049382706,49.38271604938271,0)" xlink:href="#H"/><use transform="matrix(0.049382716049382706,0,0,0.049382716049382706,54.32098765432098,0)" xlink:href="#G"/><use transform="matrix(0.049382716049382706,0,0,0.049382716049382706,64.19753086419752,0)" xlink:href="#I"/><use transform="matrix(0.049382716049382706,0,0,0.049382716049382706,69.13580246913578,0)" xlink:href="#V"/><use transform="matrix(0.049382716049382706,0,0,0.049382716049382706,79.01234567901233,0)" xlink:href="#W"/></g><path fill="#333" d="M33 0v-248h34V0H33" id="ab"/><path fill="#333" d="M117-194c89-4 53 116 60 194h-32v-121c0-31-8-49-39-48C34-167 62-67 57 0H25l-1-190h30c1 10-1 24 2 32 11-22 29-35 61-36" id="ac"/><path fill="#333" d="M59-47c-2 24 18 29 38 22v24C64 9 27 4 27-40v-127H5v-23h24l9-43h21v43h35v23H59v120" id="ad"/><path fill="#333" d="M100-194c63 0 86 42 84 106H49c0 40 14 67 53 68 26 1 43-12 49-29l28 8c-11 28-37 45-77 45C44 4 14-33 15-96c1-61 26-98 85-98zm52 81c6-60-76-77-97-28-3 7-6 17-6 28h103" id="ae"/><path fill="#333" d="M114-163C36-179 61-72 57 0H25l-1-190h30c1 12-1 29 2 39 6-27 23-49 58-41v29" id="af"/><g id="k"><use transform="matrix(0.049382716049382706,0,0,0.049382716049382706,0,0)" xlink:href="#ab"/><use transform="matrix(0.049382716049382706,0,0,0.049382716049382706,4.93827160493827,0)" xlink:href="#ac"/><use transform="matrix(0.049382716049382706,0,0,0.049382716049382706,14.814814814814811,0)" xlink:href="#ad"/><use transform="matrix(0.049382716049382706,0,0,0.049382716049382706,19.75308641975308,0)" xlink:href="#ae"/><use transform="matrix(0.049382716049382706,0,0,0.049382716049382706,29.629629629629623,0)" xlink:href="#af"/><use transform="matrix(0.049382716049382706,0,0,0.049382716049382706,35.50617283950616,0)" xlink:href="#ac"/><use transform="matrix(0.049382716049382706,0,0,0.049382716049382706,45.38271604938271,0)" xlink:href="#ae"/><use transform="matrix(0.049382716049382706,0,0,0.049382716049382706,55.259259259259245,0)" xlink:href="#ad"/></g><path fill="#333" d="M177-190C167-65 218 103 67 71c-23-6-38-20-44-43l32-5c15 47 100 32 89-28v-30C133-14 115 1 83 1 29 1 15-40 15-95c0-56 16-97 71-98 29-1 48 16 59 35 1-10 0-23 2-32h30zM94-22c36 0 50-32 50-73 0-42-14-75-50-75-39 0-46 34-46 75s6 73 46 73" id="ag"/><path fill="#333" d="M141-36C126-15 110 5 73 4 37 3 15-17 15-53c-1-64 63-63 125-63 3-35-9-54-41-54-24 1-41 7-42 31l-33-3c5-37 33-52 76-52 45 0 72 20 72 64v82c-1 20 7 32 28 27v20c-31 9-61-2-59-35zM48-53c0 20 12 33 32 33 41-3 63-29 60-74-43 2-92-5-92 41" id="ah"/><path fill="#333" d="M206 0h-36l-40-164L89 0H53L-1-190h32L70-26l43-164h34l41 164 42-164h31" id="ai"/><path fill="#333" d="M179-190L93 31C79 59 56 82 12 73V49c39 6 53-20 64-50L1-190h34L92-34l54-156h33" id="aj"/><g id="l"><use transform="matrix(0.049382716049382706,0,0,0.049382716049382706,0,0)" xlink:href="#ag"/><use transform="matrix(0.049382716049382706,0,0,0.049382716049382706,9.87654320987654,0)" xlink:href="#ah"/><use transform="matrix(0.049382716049382706,0,0,0.049382716049382706,19.75308641975308,0)" xlink:href="#ad"/><use transform="matrix(0.049382716049382706,0,0,0.049382716049382706,24.691358024691354,0)" xlink:href="#ae"/><use transform="matrix(0.049382716049382706,0,0,0.049382716049382706,34.5679012345679,0)" xlink:href="#ai"/><use transform="matrix(0.049382716049382706,0,0,0.049382716049382706,47.35802469135802,0)" xlink:href="#ah"/><use transform="matrix(0.049382716049382706,0,0,0.049382716049382706,57.234567901234556,0)" xlink:href="#aj"/></g><path fill="#333" d="M190 0L58-211 59 0H30v-248h39L202-35l-2-213h31V0h-41" id="ak"/><path fill="#333" d="M205 0l-28-72H64L36 0H1l101-248h38L239 0h-34zm-38-99l-47-123c-12 45-31 82-46 123h93" id="al"/><path fill="#333" d="M127-220V0H93v-220H8v-28h204v28h-85" id="am"/><g id="m"><use transform="matrix(0.049382716049382706,0,0,0.049382716049382706,0,0)" xlink:href="#ak"/><use transform="matrix(0.049382716049382706,0,0,0.049382716049382706,12.790123456790122,0)" xlink:href="#al"/><use transform="matrix(0.049382716049382706,0,0,0.049382716049382706,23.30864197530864,0)" xlink:href="#am"/></g><path fill="#333" d="M209 0H11v-25l151-195H24v-28h176v25L50-27h159V0" id="an"/><g id="n"><use transform="matrix(0.049382716049382706,0,0,0.049382716049382706,0,0)" xlink:href="#al"/><use transform="matrix(0.049382716049382706,0,0,0.049382716049382706,11.85185185185185,0)" xlink:href="#an"/></g><path fill="#333" d="M27 0v-27h64v-190l-56 39v-29l58-41h29v221h61V0H27" id="ao"/><use transform="matrix(0.049382716049382706,0,0,0.049382716049382706,0,0)" xlink:href="#ao" id="o"/><path fill="#333" d="M101-251c82-7 93 87 43 132L82-64C71-53 59-42 53-27h129V0H18c2-99 128-94 128-182 0-28-16-43-45-43s-46 15-49 41l-32-3c6-41 34-60 81-64" id="ap"/><use transform="matrix(0.049382716049382706,0,0,0.049382716049382706,0,0)" xlink:href="#ap" id="p"/><path fill="#333" d="M212-179c-10-28-35-45-73-45-59 0-87 40-87 99 0 60 29 101 89 101 43 0 62-24 78-52l27 14C228-24 195 4 139 4 59 4 22-46 18-125c-6-104 99-153 187-111 19 9 31 26 39 46" id="aq"/><path fill="#333" d="M24 0v-261h32V0H24" id="ar"/><path fill="#333" d="M135-143c-3-34-86-38-87 0 15 53 115 12 119 90S17 21 10-45l28-5c4 36 97 45 98 0-10-56-113-15-118-90-4-57 82-63 122-42 12 7 21 19 24 35" id="as"/><path fill="#333" d="M24-231v-30h32v30H24zM24 0v-190h32V0H24" id="at"/><path fill="#333" d="M96-169c-40 0-48 33-48 73s9 75 48 75c24 0 41-14 43-38l32 2c-6 37-31 61-74 61-59 0-76-41-82-99-10-93 101-131 147-64 4 7 5 14 7 22l-32 3c-4-21-16-35-41-35" id="au"/><g id="q"><use transform="matrix(0.049382716049382706,0,0,0.049382716049382706,0,0)" xlink:href="#aq"/><use transform="matrix(0.049382716049382706,0,0,0.049382716049382706,12.790123456790122,0)" xlink:href="#ar"/><use transform="matrix(0.049382716049382706,0,0,0.049382716049382706,16.691358024691354,0)" xlink:href="#ah"/><use transform="matrix(0.049382716049382706,0,0,0.049382716049382706,26.567901234567895,0)" xlink:href="#as"/><use transform="matrix(0.049382716049382706,0,0,0.049382716049382706,35.456790123456784,0)" xlink:href="#as"/><use transform="matrix(0.049382716049382706,0,0,0.049382716049382706,44.34567901234567,0)" xlink:href="#at"/><use transform="matrix(0.049382716049382706,0,0,0.049382716049382706,48.246913580246904,0)" xlink:href="#au"/></g><path fill="#333" d="M30 0v-248h33v221h125V0H30" id="av"/><path fill="#333" d="M100-194c62-1 85 37 85 99 1 63-27 99-86 99S16-35 15-95c0-66 28-99 85-99zM99-20c44 1 53-31 53-75 0-43-8-75-51-75s-53 32-53 75 10 74 51 75" id="aw"/><path fill="#333" d="M85-194c31 0 48 13 60 33l-1-100h32l1 261h-30c-2-10 0-23-3-31C134-8 116 4 85 4 32 4 16-35 15-94c0-66 23-100 70-100zm9 24c-40 0-46 34-46 75 0 40 6 74 45 74 42 0 51-32 51-76 0-42-9-74-50-73" id="ax"/><g id="r"><use transform="matrix(0.049382716049382706,0,0,0.049382716049382706,0,0)" xlink:href="#av"/><use transform="matrix(0.049382716049382706,0,0,0.049382716049382706,9.87654320987654,0)" xlink:href="#aw"/><use transform="matrix(0.049382716049382706,0,0,0.049382716049382706,19.75308641975308,0)" xlink:href="#ah"/><use transform="matrix(0.049382716049382706,0,0,0.049382716049382706,29.629629629629623,0)" xlink:href="#ax"/></g><path fill="#333" d="M160-131c35 5 61 23 61 61C221 17 115-2 30 0v-248c76 3 177-17 177 60 0 33-19 50-47 57zm-97-11c50-1 110 9 110-42 0-47-63-36-110-37v79zm0 115c55-2 124 14 124-45 0-56-70-42-124-44v89" id="ay"/><g id="s"><use transform="matrix(0.049382716049382706,0,0,0.049382716049382706,0,0)" xlink:href="#ay"/><use transform="matrix(0.049382716049382706,0,0,0.049382716049382706,11.85185185185185,0)" xlink:href="#ah"/><use transform="matrix(0.049382716049382706,0,0,0.049382716049382706,21.728395061728392,0)" xlink:href="#ar"/><use transform="matrix(0.049382716049382706,0,0,0.049382716049382706,25.629629629629626,0)" xlink:href="#ah"/><use transform="matrix(0.049382716049382706,0,0,0.049382716049382706,35.50617283950616,0)" xlink:href="#ac"/><use transform="matrix(0.049382716049382706,0,0,0.049382716049382706,45.38271604938271,0)" xlink:href="#au"/><use transform="matrix(0.049382716049382706,0,0,0.049382716049382706,54.271604938271594,0)" xlink:href="#ae"/><use transform="matrix(0.049382716049382706,0,0,0.049382716049382706,64.14814814814814,0)" xlink:href="#af"/></g><path fill="#333" d="M210-169c-67 3-38 105-44 169h-31v-121c0-29-5-50-35-48C34-165 62-65 56 0H25l-1-190h30c1 10-1 24 2 32 10-44 99-50 107 0 11-21 27-35 58-36 85-2 47 119 55 194h-31v-121c0-29-5-49-35-48" id="az"/><path fill="#333" d="M9 0v-24l116-142H16v-24h144v24L44-24h123V0H9" id="aA"/><g id="t"><use transform="matrix(0.049382716049382706,0,0,0.049382716049382706,0,0)" xlink:href="#al"/><use transform="matrix(0.049382716049382706,0,0,0.049382716049382706,11.85185185185185,0)" xlink:href="#az"/><use transform="matrix(0.049382716049382706,0,0,0.049382716049382706,26.617283950617278,0)" xlink:href="#ah"/><use transform="matrix(0.049382716049382706,0,0,0.049382716049382706,36.49382716049382,0)" xlink:href="#aA"/><use transform="matrix(0.049382716049382706,0,0,0.049382716049382706,45.38271604938271,0)" xlink:href="#aw"/><use transform="matrix(0.049382716049382706,0,0,0.049382716049382706,55.259259259259245,0)" xlink:href="#ac"/></g><path fill="#333" d="M30 0v-248h187v28H63v79h144v27H63v87h162V0H30" id="aB"/><g id="u"><use transform="matrix(0.049382716049382706,0,0,0.049382716049382706,0,0)" xlink:href="#aB"/><use transform="matrix(0.049382716049382706,0,0,0.049382716049382706,11.85185185185185,0)" xlink:href="#aq"/><use transform="matrix(0.049382716049382706,0,0,0.049382716049382706,24.64197530864197,0)" xlink:href="#ap"/></g><path fill="#333" d="M199 0l-22-63H83L61 0H9l90-248h61L250 0h-51zm-33-102l-36-108c-10 38-24 72-36 108h72" id="aC"/><path fill="#333" d="M110-194c64 0 96 36 96 99 0 64-35 99-97 99-61 0-95-36-95-99 0-62 34-99 96-99zm-1 164c35 0 45-28 45-65 0-40-10-65-43-65-34 0-45 26-45 65 0 36 10 65 43 65" id="aD"/><g id="v"><use transform="matrix(0.049382716049382706,0,0,0.049382716049382706,0,0)" xlink:href="#aC"/><use transform="matrix(0.049382716049382706,0,0,0.049382716049382706,12.790123456790122,0)" xlink:href="#L"/><use transform="matrix(0.049382716049382706,0,0,0.049382716049382706,23.604938271604937,0)" xlink:href="#T"/><use transform="matrix(0.049382716049382706,0,0,0.049382716049382706,29.481481481481477,0)" xlink:href="#aD"/></g><path fill="#333" d="M195-6C206 82 75 100 31 46c-4-6-6-13-8-21l49-6c3 16 16 24 34 25 40 0 42-37 40-79-11 22-30 35-61 35-53 0-70-43-70-97 0-56 18-96 73-97 30 0 46 14 59 34l2-30h47zm-90-29c32 0 41-27 41-63 0-35-9-62-40-62-32 0-39 29-40 63 0 36 9 62 39 62" id="aE"/><g id="w"><use transform="matrix(0.049382716049382706,0,0,0.049382716049382706,0,0)" xlink:href="#Q"/><use transform="matrix(0.049382716049382706,0,0,0.049382716049382706,11.85185185185185,0)" xlink:href="#P"/><use transform="matrix(0.049382716049382706,0,0,0.049382716049382706,21.728395061728392,0)" xlink:href="#Z"/><use transform="matrix(0.049382716049382706,0,0,0.049382716049382706,31.604938271604933,0)" xlink:href="#N"/><use transform="matrix(0.049382716049382706,0,0,0.049382716049382706,36.5432098765432,0)" xlink:href="#O"/><use transform="matrix(0.049382716049382706,0,0,0.049382716049382706,41.481481481481474,0)" xlink:href="#R"/><use transform="matrix(0.049382716049382706,0,0,0.049382716049382706,52.29629629629628,0)" xlink:href="#aE"/></g><path fill="#333" d="M135-194c53 0 70 44 70 98 0 56-19 98-73 100-31 1-45-17-59-34 3 33 2 69 2 105H25l-1-265h48c2 10 0 23 3 31 11-24 29-35 60-35zM114-30c33 0 39-31 40-66 0-38-9-64-40-64-56 0-55 130 0 130" id="aF"/><g id="x"><use transform="matrix(0.049382716049382706,0,0,0.049382716049382706,0,0)" xlink:href="#aE"/><use transform="matrix(0.049382716049382706,0,0,0.049382716049382706,10.814814814814813,0)" xlink:href="#X"/><use transform="matrix(0.049382716049382706,0,0,0.049382716049382706,17.728395061728392,0)" xlink:href="#aD"/><use transform="matrix(0.049382716049382706,0,0,0.049382716049382706,28.543209876543205,0)" xlink:href="#L"/><use transform="matrix(0.049382716049382706,0,0,0.049382716049382706,39.35802469135802,0)" xlink:href="#aF"/></g><path fill="#333" d="M232-93c-1 65-40 97-104 97C67 4 28-28 28-90v-158h33c8 89-33 224 67 224 102 0 64-133 71-224h33v155" id="aG"/><g id="y"><use transform="matrix(0.049382716049382706,0,0,0.049382716049382706,0,0)" xlink:href="#aG"/><use transform="matrix(0.049382716049382706,0,0,0.049382716049382706,12.790123456790122,0)" xlink:href="#ax"/><use transform="matrix(0.049382716049382706,0,0,0.049382716049382706,22.666666666666664,0)" xlink:href="#ah"/><use transform="matrix(0.049382716049382706,0,0,0.049382716049382706,32.5432098765432,0)" xlink:href="#ag"/><use transform="matrix(0.049382716049382706,0,0,0.049382716049382706,42.419753086419746,0)" xlink:href="#af"/><use transform="matrix(0.049382716049382706,0,0,0.049382716049382706,48.29629629629629,0)" xlink:href="#ah"/><use transform="matrix(0.049382716049382706,0,0,0.049382716049382706,58.17283950617284,0)" xlink:href="#az"/></g><path fill="#333" d="M233-177c-1 41-23 64-60 70L243 0h-38l-65-103H63V0H30v-248c88 3 205-21 203 71zM63-129c60-2 137 13 137-47 0-61-80-42-137-45v92" id="aH"/><path fill="#333" d="M115-194c55 1 70 41 70 98S169 2 115 4C84 4 66-9 55-30l1 105H24l-1-265h31l2 30c10-21 28-34 59-34zm-8 174c40 0 45-34 45-75s-6-73-45-74c-42 0-51 32-51 76 0 43 10 73 51 73" id="aI"/><g id="z"><use transform="matrix(0.049382716049382706,0,0,0.049382716049382706,0,0)" xlink:href="#aH"/><use transform="matrix(0.049382716049382706,0,0,0.049382716049382706,12.790123456790122,0)" xlink:href="#ae"/><use transform="matrix(0.049382716049382706,0,0,0.049382716049382706,22.666666666666664,0)" xlink:href="#aI"/><use transform="matrix(0.049382716049382706,0,0,0.049382716049382706,32.5432098765432,0)" xlink:href="#aw"/></g><g id="A"><use transform="matrix(0.049382716049382706,0,0,0.049382716049382706,0,0)" xlink:href="#at"/><use transform="matrix(0.049382716049382706,0,0,0.049382716049382706,3.9012345679012337,0)" xlink:href="#ac"/></g><path fill="#333" d="M185-189c-5-48-123-54-124 2 14 75 158 14 163 119 3 78-121 87-175 55-17-10-28-26-33-46l33-7c5 56 141 63 141-1 0-78-155-14-162-118-5-82 145-84 179-34 5 7 8 16 11 25" id="aJ"/><path fill="#333" d="M126-127c33 6 58 20 58 59 0 88-139 92-164 29-3-8-5-16-6-25l32-3c6 27 21 44 54 44 32 0 52-15 52-46 0-38-36-46-79-43v-28c39 1 72-4 72-42 0-27-17-43-46-43-28 0-47 15-49 41l-32-3c6-42 35-63 81-64 48-1 79 21 79 65 0 36-21 52-52 59" id="aK"/><g id="B"><use transform="matrix(0.049382716049382706,0,0,0.049382716049382706,0,0)" xlink:href="#aJ"/><use transform="matrix(0.049382716049382706,0,0,0.049382716049382706,11.85185185185185,0)" xlink:href="#aK"/></g><g id="C"><use transform="matrix(0.049382716049382706,0,0,0.049382716049382706,0,0)" xlink:href="#af"/><use transform="matrix(0.049382716049382706,0,0,0.049382716049382706,5.876543209876542,0)" xlink:href="#aw"/><use transform="matrix(0.049382716049382706,0,0,0.049382716049382706,15.75308641975308,0)" xlink:href="#ar"/><use transform="matrix(0.049382716049382706,0,0,0.049382716049382706,19.654320987654316,0)" xlink:href="#ae"/></g><path fill="#333" d="M240 0l2-218c-23 76-54 145-80 218h-23L58-218 59 0H30v-248h44l77 211c21-75 51-140 76-211h43V0h-30" id="aL"/><g id="D"><use transform="matrix(0.049382716049382706,0,0,0.049382716049382706,0,0)" xlink:href="#ab"/><use transform="matrix(0.049382716049382706,0,0,0.049382716049382706,4.93827160493827,0)" xlink:href="#al"/><use transform="matrix(0.049382716049382706,0,0,0.049382716049382706,16.79012345679012,0)" xlink:href="#aL"/></g><path fill="#333" d="M84 4C-5 8 30-112 23-190h32v120c0 31 7 50 39 49 72-2 45-101 50-169h31l1 190h-30c-1-10 1-25-2-33-11 22-28 36-60 37" id="aM"/><g id="E"><use transform="matrix(0.049382716049382706,0,0,0.049382716049382706,0,0)" xlink:href="#aM"/><use transform="matrix(0.049382716049382706,0,0,0.049382716049382706,9.87654320987654,0)" xlink:href="#as"/><use transform="matrix(0.049382716049382706,0,0,0.049382716049382706,18.76543209876543,0)" xlink:href="#ae"/><use transform="matrix(0.049382716049382706,0,0,0.049382716049382706,28.64197530864197,0)" xlink:href="#af"/><use transform="matrix(0.049382716049382706,0,0,0.049382716049382706,34.51851851851851,0)" xlink:href="#as"/></g></defs></g></svg>